<svg width="30.000000" height="30.000000" viewBox="0 0 30 30" fill="none" xmlns="http://www.w3.org/2000/svg" xmlns:xlink="http://www.w3.org/1999/xlink">
	<defs/>
	<path id="18+" d="M16.1016 11.5449Q15.5273 11.3105 14.7832 11.3105Q14.0566 11.3105 13.4795 11.5479Q12.9934 11.7477 12.6819 12.1013Q12.6235 12.1676 12.5713 12.2393Q12.5256 12.302 12.4861 12.3685Q12.2402 12.7832 12.2402 13.3438Q12.2402 13.877 12.4482 14.2783Q12.5178 14.4125 12.6037 14.5352Q12.7747 14.7796 13.0107 14.9785Q13.3652 15.2773 13.793 15.5117Q13.3008 15.7285 12.8848 16.0449Q12.5804 16.2764 12.3639 16.5722Q12.2844 16.6807 12.2168 16.7979Q11.9648 17.2344 11.9648 17.8262Q11.9648 18.533 12.2832 19.0397Q12.2895 19.0497 12.2959 19.0596Q12.3449 19.1355 12.4007 19.2062Q12.7211 19.6126 13.2627 19.8447Q13.8984 20.1172 14.8066 20.1172Q15.6504 20.1172 16.2773 19.8359Q16.7644 19.6175 17.0834 19.2523Q17.1751 19.1473 17.2529 19.0303Q17.2935 18.9693 17.3293 18.9057Q17.6016 18.4221 17.6016 17.7852Q17.6016 17.1992 17.3438 16.7715L17.3434 16.7709Q17.0856 16.3435 16.6436 16.0273Q16.2012 15.7109 15.6504 15.459Q16.1133 15.2305 16.4941 14.9404Q16.8326 14.6826 17.0485 14.3462Q17.0755 14.3041 17.1006 14.2607Q17.3262 13.8711 17.3262 13.3496Q17.3262 12.7377 17.0484 12.3034Q17.0256 12.2678 17.001 12.2334Q16.9456 12.156 16.8829 12.085Q16.5779 11.7394 16.1016 11.5449ZM7.76367 20L8.71289 20L8.71289 11.4336L7.9043 11.4336L5.58398 13.2207L6.09375 13.8828L7.07227 13.0977Q7.30664 12.9043 7.46484 12.7725Q7.62305 12.6406 7.80469 12.4531Q7.78711 12.6699 7.77832 12.8779Q7.76953 13.0859 7.7666 13.335Q7.76367 13.584 7.76367 13.9297L7.76367 20ZM13.6406 12.4385Q14.0801 12.1074 14.7715 12.1074Q15.4863 12.1074 15.9229 12.4355Q16.072 12.5476 16.1702 12.6939Q16.3594 12.9759 16.3594 13.3848Q16.3594 13.8067 16.1707 14.1121Q16.1655 14.1205 16.1602 14.1289Q15.9609 14.4395 15.6152 14.665Q15.2695 14.8906 14.8242 15.0781Q14.3672 14.8906 13.998 14.6709Q13.6289 14.4512 13.415 14.1436Q13.4039 14.1275 13.3933 14.111Q13.2012 13.8127 13.2012 13.3906Q13.2012 12.9871 13.3867 12.7059Q13.4867 12.5544 13.6406 12.4385ZM24.457 15.3711L22.043 15.3711L22.043 12.875L21.2402 12.875L21.2402 15.3711L18.8262 15.3711L18.8262 16.168L21.2402 16.168L21.2402 18.6523L22.043 18.6523L22.043 16.168L24.457 16.168L24.457 15.3711ZM13.0688 18.5019Q12.9199 18.2042 12.9199 17.832Q12.9199 17.3855 13.1101 17.0453Q13.1145 17.0373 13.1191 17.0293Q13.3184 16.6836 13.6963 16.4111Q14.0742 16.1387 14.6133 15.916L14.8242 15.9922Q15.3809 16.2031 15.791 16.4609Q16.2012 16.7188 16.4238 17.0439Q16.484 17.1318 16.5279 17.2271Q16.6465 17.4847 16.6465 17.7969Q16.6465 18.2112 16.4718 18.5298Q16.355 18.7429 16.1602 18.9131Q15.6738 19.3379 14.7832 19.3379Q13.8457 19.3379 13.3828 18.9131Q13.1824 18.7292 13.0688 18.5019Z" fill="#A1A6B4" fill-opacity="1.000000" fill-rule="evenodd"/>
	<rect id="Frame 119" rx="7.500000" width="29.000000" height="29.000000" transform="translate(0.500000 0.500000)" stroke="#A1A6B4" stroke-opacity="1.000000" stroke-width="1.000000"/>
</svg>
