<svg width="24.000000" height="24.000000" viewBox="0 0 24 24" fill="none" xmlns="http://www.w3.org/2000/svg" xmlns:xlink="http://www.w3.org/1999/xlink">
	<desc>
			Created with Pixso.
	</desc>
	<defs>
		<clipPath id="clip24531_5373">
			<rect id="social_guest" width="24.000000" height="24.000000" fill="white" fill-opacity="0"/>
		</clipPath>
	</defs>
	<rect id="social_guest" width="24.000000" height="24.000000" fill="#0B1919" fill-opacity="0"/>
	<g clip-path="url(#clip24531_5373)">
		<path id="Subtract" d="M2 8C2 4.68652 4.68628 2 8 2L16 2C19.3137 2 22 4.68652 22 8L22 16C22 19.3135 19.3137 22 16 22L8 22C4.68628 22 2 19.3135 2 16L2 8ZM12.0724 4C9.61572 4 7.62439 5.85645 7.62439 8.146C7.62439 10.436 9.61572 12.2925 12.0724 12.2925C14.5292 12.2925 16.5206 10.436 16.5206 8.146C16.5206 5.85645 14.5292 4 12.0724 4ZM12.0724 9.86035C11.0569 9.86035 10.2338 9.09277 10.2338 8.14648C10.2338 7.19971 11.0569 6.43213 12.0724 6.43213C13.088 6.43213 13.9111 7.19971 13.9111 8.14648C13.9111 9.09277 13.088 9.86035 12.0724 9.86035ZM13.6427 15.5918C15.4236 15.2534 16.4907 14.4673 16.5472 14.4253C17.0683 14.0356 17.1519 13.3262 16.7341 12.8403C16.3163 12.3545 15.5551 12.2769 15.0338 12.666C15.0228 12.6743 13.8847 13.4883 12.012 13.4893C10.1393 13.4883 8.97717 12.6743 8.96619 12.666C8.44495 12.2769 7.6839 12.3545 7.26593 12.8403C6.84808 13.3262 6.9317 14.0356 7.45294 14.4253C7.51007 14.4678 8.62134 15.2744 10.4519 15.605L7.90063 18.0903C7.43689 18.5386 7.45074 19.252 7.9317 19.6841C8.16644 19.895 8.46899 20 8.77112 20C9.08807 20 9.4046 19.8848 9.64178 19.6553L12.012 17.3018L14.6216 19.6704C15.0945 20.1104 15.8602 20.1099 16.3321 19.6689C16.8041 19.2285 16.8035 18.5146 16.3307 18.0747L13.6427 15.5918Z" fill="#D2D5DD" fill-opacity="1.000000" fill-rule="evenodd"/>
	</g>
</svg>
