<svg width="24.000000" height="24.000000" viewBox="0 0 24 24" fill="none" xmlns="http://www.w3.org/2000/svg" xmlns:xlink="http://www.w3.org/1999/xlink">
	<desc>
			Created with Pixso.
	</desc>
	<defs>
		<clipPath id="clip24531_5372">
			<rect id="social_footer" width="24.000000" height="24.000000" fill="white" fill-opacity="0"/>
		</clipPath>
	</defs>
	<g clip-path="url(#clip24531_5372)">
		<path id="Vector" d="M21.543 6.49805C22 8.27979 22 12 22 12C22 12 22 15.7202 21.543 17.502C21.289 18.4868 20.546 19.2622 19.605 19.5239C17.896 20 12 20 12 20C12 20 6.10699 20 4.39499 19.5239C3.45001 19.2578 2.70801 18.4839 2.457 17.502C2 15.7202 2 12 2 12C2 12 2 8.27979 2.457 6.49805C2.711 5.51318 3.45401 4.73779 4.39499 4.47607C6.10699 4 12 4 12 4C12 4 17.896 4 19.605 4.47607C20.55 4.74219 21.292 5.51611 21.543 6.49805ZM10 15.5L16 12L10 8.5L10 15.5Z" fill="#D2D5DD" fill-opacity="1.000000" fill-rule="nonzero"/>
	</g>
</svg>
